<svg id="svg" version="1.1" xmlns="http://www.w3.org/2000/svg" xmlns:xlink="http://www.w3.org/1999/xlink" width="400" height="412.0689655172414" viewBox="0, 0, 400,412.0689655172414"><g id="svgg"><path id="path0" d="M194.600 18.179 C 167.869 24.555,147.264 49.262,122.695 104.400 C 115.559 120.413,115.558 120.409,126.035 117.177 C 135.170 114.359,146.093 111.952,155.800 110.617 C 158.440 110.253,161.680 109.791,163.000 109.588 C 164.320 109.385,168.010 109.026,171.200 108.790 C 174.390 108.553,177.270 108.255,177.600 108.127 C 177.930 107.999,185.349 107.783,194.086 107.647 C 214.216 107.334,213.899 107.512,207.016 100.400 C 201.117 94.303,200.389 92.652,202.514 90.182 C 204.900 87.409,206.318 88.251,217.005 98.791 C 226.618 108.272,227.020 108.543,231.485 108.580 C 237.715 108.631,237.310 108.018,218.813 89.400 C 199.869 70.334,200.013 70.526,202.394 67.499 C 204.849 64.378,205.623 64.944,224.218 83.456 C 254.945 114.046,252.650 112.121,259.043 112.666 C 265.410 113.208,265.731 113.598,232.217 80.000 C 215.867 63.610,202.290 49.807,202.045 49.326 C 200.177 45.662,203.874 42.036,207.211 44.259 C 207.755 44.621,224.490 61.143,244.400 80.975 C 264.310 100.806,281.083 117.274,281.673 117.569 C 284.533 119.001,284.621 116.758,281.950 110.483 C 279.494 104.711,280.893 106.219,241.596 67.000 C 201.286 26.771,201.600 27.102,201.600 24.733 C 201.600 22.536,203.300 20.800,205.451 20.800 C 206.919 20.800,207.759 21.593,233.782 47.552 C 261.961 75.661,264.579 77.994,263.849 74.346 C 263.079 70.495,254.887 56.978,247.034 46.600 C 231.623 26.235,209.989 14.508,194.600 18.179 M152.110 131.861 C 147.970 133.328,147.656 135.240,149.996 144.734 C 154.431 162.727,161.550 180.032,166.335 184.451 C 173.489 191.057,189.881 198.025,199.827 198.688 C 209.160 199.311,228.787 191.415,236.443 183.958 C 240.303 180.199,247.432 162.464,251.822 145.703 C 254.600 135.096,254.228 132.989,249.338 131.631 C 246.662 130.888,154.241 131.107,152.110 131.861 M204.483 143.134 C 205.788 144.685,211.644 157.359,211.885 159.154 C 212.403 163.021,204.892 163.635,203.055 159.876 C 202.089 157.898,201.540 143.636,202.390 142.612 C 203.096 141.762,203.390 141.835,204.483 143.134 M92.028 232.701 C 88.866 234.313,88.046 240.359,89.166 253.800 C 89.405 256.660,89.777 264.940,89.992 272.200 C 90.208 279.460,90.570 289.810,90.797 295.200 C 91.023 300.590,91.402 311.840,91.638 320.200 C 93.191 375.097,92.841 370.357,95.419 371.434 C 97.157 372.160,303.528 372.293,306.132 371.570 C 308.875 370.809,309.038 369.157,310.012 332.244 C 310.238 323.688,310.516 316.536,310.630 316.351 C 310.745 316.166,311.012 308.587,311.225 299.507 C 311.437 290.428,311.774 276.160,311.973 267.800 C 312.172 259.440,312.550 250.337,312.812 247.571 C 313.764 237.513,313.155 234.324,309.972 232.701 C 307.841 231.614,94.159 231.614,92.028 232.701 M211.000 254.386 C 238.933 261.995,251.252 293.148,236.523 318.935 C 233.997 323.357,234.032 322.725,236.012 328.200 C 238.432 334.895,234.773 339.331,226.400 339.853 C 220.506 340.220,219.911 340.842,219.181 347.388 C 218.350 354.840,219.554 354.400,200.000 354.400 C 180.294 354.400,181.804 355.012,180.447 346.478 C 179.485 340.431,179.270 340.223,173.646 339.880 C 164.711 339.336,161.177 334.563,164.200 327.123 C 165.607 323.660,165.500 322.747,163.224 318.804 C 148.075 292.555,161.463 260.738,190.496 253.992 C 195.204 252.898,206.320 253.112,211.000 254.386 M172.121 297.605 C 168.674 298.993,169.245 306.834,173.113 311.240 C 179.015 317.962,190.907 315.709,193.763 307.326 C 195.377 302.591,194.279 301.381,187.474 300.392 C 185.755 300.142,181.924 299.321,178.961 298.569 C 173.031 297.062,173.355 297.108,172.121 297.605 M220.400 298.644 C 217.430 299.402,213.740 300.199,212.200 300.413 C 206.429 301.217,205.600 301.745,205.600 304.620 C 205.600 313.501,218.011 318.361,225.525 312.422 C 230.148 308.767,231.674 299.700,227.987 297.793 C 226.532 297.041,226.784 297.012,220.400 298.644 M204.400 322.800 C 202.983 324.217,203.919 329.404,205.816 330.647 C 208.913 332.676,210.053 326.037,207.140 322.936 C 206.064 321.791,205.440 321.760,204.400 322.800 M193.652 323.424 C 192.580 324.787,191.847 328.346,192.360 329.696 C 193.663 333.123,197.148 330.132,197.330 325.430 C 197.443 322.493,195.303 321.326,193.652 323.424 M96.400 387.883 C 94.093 388.735,93.518 392.448,95.457 393.973 L 96.514 394.804 201.492 394.702 L 306.471 394.600 307.235 393.656 C 308.235 392.421,308.235 389.979,307.235 388.744 L 306.471 387.800 201.735 387.730 C 144.131 387.692,96.730 387.761,96.400 387.883 " stroke="none" fill="#fbf9f9" fill-rule="evenodd"></path><path id="path1" d="M173.400 2.393 C 168.327 4.934,168.218 4.995,164.849 7.195 C 163.666 7.968,162.103 8.960,161.375 9.400 C 160.646 9.840,158.597 11.415,156.821 12.900 C 155.045 14.385,153.461 15.600,153.301 15.600 C 152.849 15.600,142.400 26.138,142.399 26.594 C 142.399 26.817,141.665 27.810,140.767 28.800 C 139.095 30.645,136.118 34.384,135.395 35.548 C 135.172 35.907,134.137 37.345,133.095 38.744 C 132.053 40.143,131.200 41.463,131.200 41.677 C 131.200 41.890,130.597 42.816,129.860 43.733 C 129.123 44.650,128.178 46.026,127.760 46.791 C 127.342 47.556,126.235 49.301,125.300 50.668 C 124.365 52.036,123.600 53.299,123.599 53.477 C 123.599 53.655,122.879 54.837,121.999 56.104 C 121.120 57.372,120.400 58.641,120.400 58.924 C 120.400 59.208,120.242 59.611,120.049 59.820 C 119.610 60.295,117.669 63.795,114.957 69.000 C 111.629 75.388,109.517 79.727,107.560 84.200 C 107.271 84.860,106.834 85.670,106.588 86.000 C 106.343 86.330,105.897 87.410,105.597 88.400 C 105.296 89.390,104.724 90.678,104.325 91.262 C 103.926 91.846,103.600 92.442,103.600 92.587 C 103.600 92.843,102.508 95.343,100.624 99.400 C 100.113 100.500,99.437 102.030,99.121 102.800 C 98.805 103.570,98.077 105.190,97.502 106.400 C 96.927 107.610,96.168 109.477,95.816 110.550 C 95.464 111.622,94.911 112.877,94.588 113.339 C 94.265 113.800,94.000 114.403,94.000 114.677 C 94.000 114.952,93.550 116.160,93.000 117.363 C 92.450 118.565,92.000 119.652,92.000 119.779 C 92.000 119.905,91.622 120.862,91.160 121.904 C 90.698 122.947,90.139 124.250,89.918 124.800 C 89.697 125.350,89.277 126.340,88.985 127.000 C 88.694 127.660,88.328 128.650,88.172 129.200 C 88.017 129.750,87.465 131.133,86.945 132.274 C 86.425 133.415,86.000 134.561,86.000 134.820 C 86.000 135.079,85.650 135.946,85.223 136.746 C 83.244 140.447,82.959 152.722,84.789 155.400 C 84.939 155.620,85.391 156.700,85.794 157.800 C 86.196 158.900,87.172 160.774,87.962 161.965 C 88.753 163.156,89.650 164.596,89.956 165.165 C 90.666 166.488,94.363 171.044,95.968 172.575 C 96.646 173.221,97.200 173.937,97.200 174.166 C 97.200 174.396,98.683 176.074,100.495 177.896 C 104.128 181.548,104.192 181.865,101.594 183.317 C 100.858 183.728,99.222 184.860,97.958 185.832 C 96.695 186.805,95.527 187.600,95.363 187.600 C 95.199 187.600,93.832 188.500,92.324 189.600 C 90.817 190.700,89.505 191.600,89.410 191.600 C 89.315 191.600,88.013 192.519,86.518 193.643 C 85.023 194.766,83.530 195.790,83.200 195.918 C 82.870 196.045,81.324 197.106,79.764 198.275 C 78.205 199.444,76.796 200.400,76.635 200.400 C 76.473 200.400,74.991 201.435,73.342 202.700 C 71.693 203.965,69.975 205.207,69.524 205.461 C 68.429 206.076,64.479 209.984,63.879 211.046 C 63.615 211.511,62.545 213.032,61.500 214.426 C 60.455 215.820,59.600 217.091,59.600 217.252 C 59.600 217.412,58.917 218.591,58.082 219.872 C 57.247 221.152,56.233 223.010,55.829 224.000 C 55.053 225.899,54.220 227.805,52.838 230.844 C 52.377 231.858,51.999 232.938,51.999 233.244 C 51.998 233.550,51.671 234.340,51.273 235.000 C 50.874 235.660,50.308 237.100,50.013 238.200 C 49.719 239.300,49.248 240.650,48.965 241.200 C 48.683 241.750,48.136 243.100,47.750 244.200 C 47.363 245.300,46.832 246.560,46.568 247.000 C 46.305 247.440,45.866 248.520,45.592 249.400 C 45.319 250.280,44.977 251.180,44.832 251.400 C 44.687 251.620,44.225 252.880,43.807 254.200 C 43.389 255.520,42.811 256.955,42.523 257.389 C 42.235 257.823,42.000 258.403,42.000 258.677 C 42.000 258.952,41.572 260.127,41.049 261.288 C 40.525 262.450,39.856 264.120,39.562 265.000 C 39.267 265.880,38.796 266.955,38.513 267.389 C 38.231 267.823,38.000 268.460,38.000 268.804 C 38.000 269.149,37.673 270.072,37.273 270.856 C 36.874 271.640,36.219 273.343,35.818 274.640 C 35.418 275.938,34.946 277.184,34.771 277.410 C 34.595 277.635,34.158 278.715,33.798 279.810 C 33.439 280.904,32.797 282.563,32.373 283.496 C 31.948 284.428,31.599 285.418,31.598 285.696 C 31.596 285.973,31.363 286.650,31.079 287.200 C 30.795 287.750,30.239 289.280,29.844 290.600 C 29.449 291.920,28.873 293.567,28.563 294.260 C 28.253 294.954,28.000 295.923,28.000 296.414 C 28.000 297.494,27.283 300.240,26.656 301.561 C 26.012 302.916,26.028 321.131,26.674 322.439 C 26.935 322.968,27.448 324.660,27.814 326.200 C 28.180 327.740,28.611 329.180,28.771 329.400 C 28.931 329.620,29.380 330.700,29.768 331.800 C 30.155 332.900,30.801 334.520,31.202 335.400 C 31.604 336.280,32.126 337.450,32.363 338.000 C 32.879 339.196,33.710 340.613,35.709 343.708 C 36.529 344.977,37.202 346.147,37.204 346.308 C 37.207 346.468,37.925 347.500,38.800 348.600 C 39.675 349.700,40.393 350.813,40.396 351.074 C 40.399 351.431,35.964 351.579,22.500 351.674 L 4.600 351.800 2.300 352.895 L 0.000 353.989 0.000 366.000 L -0.000 378.011 2.300 379.105 L 4.600 380.200 35.680 380.400 C 55.631 380.528,66.891 380.743,67.125 381.000 C 67.326 381.220,68.415 382.437,69.545 383.704 L 71.600 386.008 71.600 393.658 C 71.600 400.846,72.100 406.114,72.865 406.980 C 73.049 407.189,73.200 407.648,73.200 408.000 C 73.200 408.352,73.690 409.396,74.289 410.320 L 75.379 412.000 200.080 412.000 L 324.781 412.000 326.382 409.975 C 327.262 408.861,328.184 407.196,328.430 406.275 C 328.677 405.354,329.023 404.420,329.200 404.200 C 329.377 403.980,329.650 401.370,329.807 398.400 C 330.451 386.200,331.062 384.194,335.135 380.900 C 335.616 380.511,341.889 380.397,363.376 380.388 C 392.224 380.375,395.567 380.218,398.324 378.746 L 400.000 377.852 400.000 366.126 C 400.000 358.423,399.860 354.400,399.592 354.400 C 399.368 354.400,398.513 353.980,397.692 353.466 C 394.949 351.750,393.308 351.600,377.246 351.600 C 360.184 351.600,360.788 351.727,363.165 348.645 C 364.064 347.480,364.800 346.395,364.800 346.235 C 364.800 346.075,365.385 345.107,366.100 344.084 C 367.514 342.061,368.678 340.002,369.992 337.200 C 370.457 336.210,371.011 335.083,371.225 334.695 C 371.438 334.308,371.889 333.138,372.227 332.095 C 372.564 331.053,372.999 329.840,373.192 329.400 C 373.795 328.031,374.346 325.883,374.629 323.800 C 374.779 322.700,375.103 321.547,375.350 321.239 C 375.980 320.452,375.975 302.339,375.345 301.561 C 375.095 301.253,374.771 300.190,374.624 299.200 C 374.268 296.789,373.509 293.495,373.197 293.000 C 373.058 292.780,372.713 291.790,372.431 290.800 C 372.148 289.810,371.590 288.280,371.191 287.400 C 370.792 286.520,370.268 285.050,370.026 284.133 C 369.785 283.217,369.321 281.957,368.996 281.333 C 368.671 280.710,368.404 279.980,368.402 279.712 C 368.401 279.443,367.950 278.240,367.400 277.037 C 366.850 275.835,366.400 274.754,366.400 274.636 C 366.400 274.517,365.860 273.241,365.200 271.800 C 364.540 270.359,364.000 268.955,364.000 268.679 C 364.000 268.403,363.769 267.823,363.487 267.389 C 363.205 266.955,362.643 265.520,362.238 264.200 C 361.441 261.600,360.967 260.375,359.683 257.600 C 359.226 256.610,358.558 254.904,358.200 253.810 C 357.841 252.715,357.407 251.635,357.235 251.410 C 357.063 251.184,356.614 250.010,356.238 248.800 C 355.862 247.590,355.205 245.837,354.777 244.904 C 354.350 243.972,354.000 242.977,354.000 242.693 C 354.000 242.410,353.765 241.823,353.477 241.389 C 353.189 240.955,352.610 239.520,352.190 238.200 C 351.770 236.880,351.195 235.445,350.913 235.011 C 350.631 234.577,350.400 233.983,350.400 233.692 C 350.400 233.400,350.040 232.416,349.600 231.506 C 349.160 230.595,348.800 229.693,348.800 229.501 C 348.800 229.170,345.888 222.874,345.145 221.600 C 344.952 221.270,344.484 220.370,344.104 219.600 C 343.724 218.830,342.420 216.870,341.206 215.243 C 339.993 213.617,338.791 211.927,338.535 211.488 C 337.944 210.471,331.923 204.400,331.506 204.400 C 331.333 204.400,329.884 203.455,328.284 202.300 C 326.685 201.145,325.091 200.020,324.741 199.800 C 324.392 199.580,322.990 198.635,321.625 197.700 C 320.260 196.765,319.041 196.000,318.916 196.000 C 318.792 196.000,317.397 195.010,315.817 193.800 C 314.237 192.590,312.826 191.600,312.681 191.600 C 312.536 191.600,311.183 190.700,309.676 189.600 C 308.168 188.500,306.815 187.600,306.669 187.600 C 306.523 187.600,304.957 186.475,303.188 185.100 C 301.420 183.725,299.619 182.422,299.186 182.205 C 298.107 181.663,298.080 181.719,301.000 178.520 C 302.430 176.953,303.600 175.509,303.600 175.310 C 303.600 175.112,304.160 174.421,304.844 173.775 C 307.160 171.587,311.936 165.743,313.024 163.766 C 313.620 162.685,314.248 161.620,314.419 161.400 C 315.345 160.214,317.648 155.083,318.183 153.016 C 318.862 150.394,319.054 142.196,318.428 142.583 C 318.223 142.709,317.925 142.602,317.766 142.345 C 317.573 142.032,317.651 141.984,318.001 142.201 C 318.805 142.698,318.188 138.999,317.201 137.401 C 316.760 136.688,316.400 135.880,316.400 135.605 C 316.400 135.329,315.613 133.461,314.650 131.452 C 313.688 129.443,312.678 127.080,312.406 126.200 C 312.134 125.320,311.676 124.224,311.388 123.764 C 311.100 123.304,310.656 122.134,310.401 121.164 C 309.978 119.558,309.467 118.325,307.162 113.356 C 306.743 112.452,306.399 111.462,306.399 111.156 C 306.398 110.850,306.074 110.060,305.679 109.400 C 305.285 108.740,304.634 107.300,304.233 106.200 C 303.833 105.100,302.825 102.760,301.994 101.000 C 301.163 99.240,300.357 97.378,300.203 96.863 C 300.049 96.348,299.400 94.873,298.761 93.586 C 298.123 92.298,297.600 91.112,297.600 90.949 C 297.600 90.618,296.142 87.331,295.583 86.400 C 295.384 86.070,294.932 85.170,294.578 84.400 C 294.223 83.630,293.765 82.730,293.559 82.400 C 293.353 82.070,292.907 81.170,292.569 80.400 C 291.787 78.621,287.629 69.996,287.168 69.200 C 286.977 68.870,286.082 67.160,285.179 65.400 C 284.276 63.640,283.022 61.390,282.394 60.400 C 281.765 59.410,280.786 57.700,280.218 56.600 C 279.107 54.449,278.792 53.917,277.100 51.335 C 276.495 50.411,276.000 49.458,276.000 49.215 C 276.000 48.973,275.045 47.475,273.879 45.887 C 272.712 44.299,271.519 42.519,271.228 41.932 C 270.937 41.344,269.864 39.814,268.845 38.532 C 267.825 37.249,266.754 35.735,266.464 35.167 C 266.174 34.599,264.331 32.307,262.368 30.074 C 260.406 27.840,258.800 25.873,258.800 25.701 C 258.800 25.281,247.878 14.400,247.456 14.400 C 247.273 14.400,246.015 13.448,244.661 12.284 C 241.932 9.937,239.380 8.000,239.017 8.000 C 238.887 8.000,237.865 7.370,236.745 6.600 C 235.626 5.830,234.520 5.200,234.287 5.200 C 234.054 5.200,233.579 4.950,233.231 4.644 C 232.884 4.338,230.980 3.214,229.000 2.147 L 225.400 0.206 201.800 0.098 L 178.200 -0.010 173.400 2.393 M207.715 18.526 C 226.066 22.582,242.255 36.765,257.804 62.407 C 260.718 67.212,263.535 72.776,263.849 74.346 C 264.579 77.994,261.961 75.661,233.782 47.552 C 207.759 21.593,206.919 20.800,205.451 20.800 C 203.300 20.800,201.600 22.536,201.600 24.733 C 201.600 27.102,201.286 26.771,241.596 67.000 C 280.893 106.219,279.494 104.711,281.950 110.483 C 284.621 116.758,284.533 119.001,281.673 117.569 C 281.083 117.274,264.310 100.806,244.400 80.975 C 224.490 61.143,207.755 44.621,207.211 44.259 C 203.874 42.036,200.177 45.662,202.045 49.326 C 202.290 49.807,215.867 63.610,232.217 80.000 C 265.731 113.598,265.410 113.208,259.043 112.666 C 252.650 112.121,254.945 114.046,224.218 83.456 C 205.623 64.944,204.849 64.378,202.394 67.499 C 200.013 70.526,199.869 70.334,218.813 89.400 C 237.310 108.018,237.715 108.631,231.485 108.580 C 227.020 108.543,226.618 108.272,217.005 98.791 C 206.318 88.251,204.900 87.409,202.514 90.182 C 200.389 92.652,201.117 94.303,207.016 100.400 C 213.899 107.512,214.216 107.334,194.086 107.647 C 185.349 107.783,177.930 107.999,177.600 108.127 C 177.270 108.255,174.390 108.553,171.200 108.790 C 168.010 109.026,164.320 109.385,163.000 109.588 C 161.680 109.791,158.440 110.253,155.800 110.617 C 146.093 111.952,135.170 114.359,126.035 117.177 C 115.558 120.409,115.559 120.413,122.695 104.400 C 147.264 49.262,167.869 24.555,194.600 18.179 C 199.346 17.047,201.248 17.097,207.715 18.526 M249.338 131.631 C 254.228 132.989,254.600 135.096,251.822 145.703 C 247.432 162.464,240.303 180.199,236.443 183.958 C 228.787 191.415,209.160 199.311,199.827 198.688 C 189.881 198.025,173.489 191.057,166.335 184.451 C 161.550 180.032,154.431 162.727,149.996 144.734 C 147.656 135.240,147.970 133.328,152.110 131.861 C 154.241 131.107,246.662 130.888,249.338 131.631 M202.390 142.612 C 201.540 143.636,202.089 157.898,203.055 159.876 C 203.960 161.727,206.053 162.589,208.771 162.230 C 212.932 161.680,212.907 160.319,208.563 150.985 C 204.721 142.730,203.579 141.180,202.390 142.612 M309.972 232.701 C 313.155 234.324,313.764 237.513,312.812 247.571 C 312.550 250.337,312.172 259.440,311.973 267.800 C 311.774 276.160,311.437 290.428,311.225 299.507 C 311.012 308.587,310.745 316.166,310.630 316.351 C 310.516 316.536,310.238 323.688,310.012 332.244 C 309.038 369.157,308.875 370.809,306.132 371.570 C 303.528 372.293,97.157 372.160,95.419 371.434 C 92.841 370.357,93.191 375.097,91.638 320.200 C 91.402 311.840,91.023 300.590,90.797 295.200 C 90.570 289.810,90.208 279.460,89.992 272.200 C 89.777 264.940,89.405 256.660,89.166 253.800 C 88.046 240.359,88.866 234.313,92.028 232.701 C 94.159 231.614,307.841 231.614,309.972 232.701 M190.496 253.992 C 161.463 260.738,148.075 292.555,163.224 318.804 C 165.500 322.747,165.607 323.660,164.200 327.123 C 161.177 334.563,164.711 339.336,173.646 339.880 C 179.270 340.223,179.485 340.431,180.447 346.478 C 181.804 355.012,180.294 354.400,200.000 354.400 C 219.554 354.400,218.350 354.840,219.181 347.388 C 219.911 340.842,220.506 340.220,226.400 339.853 C 234.773 339.331,238.432 334.895,236.012 328.200 C 234.032 322.725,233.997 323.357,236.523 318.935 C 251.252 293.148,238.933 261.995,211.000 254.386 C 206.320 253.112,195.204 252.898,190.496 253.992 M178.961 298.569 C 181.924 299.321,185.755 300.142,187.474 300.392 C 194.279 301.381,195.377 302.591,193.763 307.326 C 190.907 315.709,179.015 317.962,173.113 311.240 C 168.684 306.195,168.791 297.622,173.287 297.225 C 173.445 297.211,175.999 297.816,178.961 298.569 M227.987 297.793 C 231.674 299.700,230.148 308.767,225.525 312.422 C 218.011 318.361,205.600 313.501,205.600 304.620 C 205.600 301.745,206.429 301.217,212.200 300.413 C 213.740 300.199,217.430 299.402,220.400 298.644 C 226.784 297.012,226.532 297.041,227.987 297.793 M207.140 322.936 C 210.053 326.037,208.913 332.676,205.816 330.647 C 203.919 329.404,202.983 324.217,204.400 322.800 C 205.440 321.760,206.064 321.791,207.140 322.936 M196.849 323.059 C 198.196 324.682,196.580 330.539,194.652 331.023 C 192.620 331.533,191.739 329.782,192.408 326.559 C 193.144 323.017,195.363 321.268,196.849 323.059 M307.235 388.744 C 308.235 389.979,308.235 392.421,307.235 393.656 L 306.471 394.600 201.492 394.702 L 96.514 394.804 95.457 393.973 C 93.518 392.448,94.093 388.735,96.400 387.883 C 96.730 387.761,144.131 387.692,201.735 387.730 L 306.471 387.800 307.235 388.744 " stroke="none" fill="#ac0424" fill-rule="evenodd"></path></g></svg>